<svg xmlns="http://www.w3.org/2000/svg" width="18" height="18" viewBox="0 0 18 18" fill="none">
<path d="M1.24023 6.04211H16.5527L15.7536 14.8286C15.7104 15.3042 15.491 15.7464 15.1384 16.0685C14.7859 16.3906 14.3257 16.5693 13.8482 16.5695H3.94481C3.46728 16.5693 3.00708 16.3906 2.65453 16.0685C2.30199 15.7464 2.08257 15.3042 2.03936 14.8286L1.24023 6.04211Z" stroke="#4D4D4D" stroke-width="1.33333" stroke-linejoin="round"/>
<path d="M5.37305 6.84725V4.34725C5.37305 3.46319 5.75716 2.61535 6.44089 1.99023C7.12461 1.36511 8.05195 1.01392 9.01888 1.01392C9.98582 1.01392 10.9131 1.36511 11.5969 1.99023C12.2806 2.61535 12.6647 3.46319 12.6647 4.34725V6.84725" stroke="#4D4D4D" stroke-width="1.33333"/>
</svg>