<svg xmlns="http://www.w3.org/2000/svg" width="24" height="24" viewBox="0 0 24 24" fill="none">
<path d="M2.6875 8.44922H21.0625L20.1036 18.993C20.0517 19.5637 19.7884 20.0944 19.3653 20.4809C18.9423 20.8674 18.39 21.0818 17.817 21.082H5.93298C5.35996 21.0818 4.80771 20.8674 4.38466 20.4809C3.96161 20.0944 3.6983 19.5637 3.64645 18.993L2.6875 8.44922Z" stroke="#03183E" stroke-width="1.6" stroke-linejoin="round"/>
<path d="M7.64648 9.41602V6.41602C7.64648 5.35515 8.10742 4.33773 8.92789 3.58759C9.74836 2.83744 10.8612 2.41602 12.0215 2.41602C13.1818 2.41602 14.2946 2.83744 15.1151 3.58759C15.9355 4.33773 16.3965 5.35515 16.3965 6.41602V9.41602" stroke="#03183E" stroke-width="1.6"/>
</svg>